<svg id="_레이어_1" data-name="레이어 1" xmlns="http://www.w3.org/2000/svg" viewBox="0 0 100 100">
                                    <defs>
                                      <style>
                                        .cls-1 {
                                          fill: none;
                                          stroke: #231f20;
                                          stroke-miterlimit: 10;
                                          stroke-width: 2px;
                                        }
                                      </style>
                                    </defs>
                                    <path class="cls-1" d="m42.2,69.07c2.85,4,6.4,8.19,6.4,8.19,0,0,8.64-1.46,17.42-5.1"></path>
                                    <path class="cls-1" d="m31.97,66.61s0,35.44,0,28.35"></path>
                                    <path class="cls-1" d="m57.22,75.21s0,24.68,0,19.74"></path>
                                    <path class="cls-1" d="m45.74,83.96c0-2.75,0,13.74,0,10.99"></path>
                                    <path class="cls-1" d="m72.14,73.63h-2.3c-3.17,0-5.74-2.57-5.74-5.74h0c0-3.17,2.57-5.74,5.74-5.74h2.3c3.17,0,5.74,2.57,5.74,5.74h0c0,3.17-2.57,5.74-5.74,5.74Z"></path>
                                    <path class="cls-1" d="m77.39,65.68c2.35-1.92,4.28-4.11,5.5-6.61,4.34-8.93-.41-17.02-7.04-19.43-6.64-2.42-14.1.53-16.52,7.17,2.28-6.69-1.69-13.66-8.38-15.94-6.68-2.28-15.45,1.04-17.67,10.72-.7,3.05-.44,6.37.4,9.73h0s1.12,5.1,4.02,5.75c0,0,5.99,1.57,9.18,2.32,6.53,1.53,5.86,9.18-.5,9.95,0,0-1.78.06-3.07-.1-2.42-.31-8.33-1.51-8.33-1.51-3.01-.76-6-1.86-7.7-5.57-.28-.6-1.11-2.4-1.11-2.4-1.76-3.8-1.89-5.84-1.89-8.93,0-3.75,4.54-11.79,3.53-9.89h0"></path>
                                    <path class="cls-1" d="m33.97,31.73c.28.53-2-3.82-2-6.16v-3.44c0-5.39,3.93-9.76,9.18-9.76s9.18,4.37,9.18,9.76c0,0,0,4.3,0,3.44"></path>
                                  </svg>