<svg id="_레이어_1" data-name="레이어 1" xmlns="http://www.w3.org/2000/svg" viewBox="0 0 100 100">
                                    <defs>
                                      <style>
                                        .cls-1 {
                                          fill: none;
                                          stroke: #231f20;
                                          stroke-miterlimit: 10;
                                          stroke-width: 2px;
                                        }
                                      </style>
                                    </defs>
                                    <path class="cls-1" d="m43.95,53.22h0s.16.16.16.16l8.32,8.32,8.32-8.32.16-.16h0c2.22-2.31,2.19-5.97-.08-8.24-2.27-2.27-5.94-2.3-8.24-.08h0s-.16.16-.16.16l-.16-.16h0c-2.3-2.22-5.97-2.19-8.24.08-2.27,2.27-2.3,5.94-.08,8.24Z"></path>
                                    <g>
                                      <g>
                                        <line class="cls-1" x1="50" y1="75.05" x2="50" y2="75.05"></line>
                                        <path class="cls-1" d="m61.74,71.84l16.3-13.52c.51-.43,1.14-.64,1.74-.65h0c.6-.01,1.18.19,1.64.67.93.93.79,2.32-.02,3.38l-12.66,16.49c-1.98,2.51-3.7,4.11-7.39,4.09l-18.88-.09c-3.76-.02-4.76.47-6.42,3.33,0,0-1.17,1.97-.93,1.58"></path>
                                        <path class="cls-1" d="m43.12,75.02c0,3.83,15.31.08,15.31.08,1.83,0,3.31-1.44,3.32-3.25,0-1.81-1.46-3.28-3.28-3.29l-7.11-.03c-3.29-3.32-7.93-4.92-12.55-4.33-4.62.59-8.72,3.29-11.08,7.32,0,0-6.11,10.54-4.91,8.42"></path>
                                      </g>
                                      <g>
                                        <line class="cls-1" x1="54.87" y1="28.06" x2="54.87" y2="28.06"></line>
                                        <path class="cls-1" d="m43.13,31.27l-16.3,13.52c-.51.43-1.14.64-1.74.65h0c-.6.01-1.18-.19-1.64-.67-.93-.93-.79-2.32.02-3.38l12.66-16.49c1.98-2.51,3.7-4.11,7.39-4.09l18.88.09c3.76.02,4.76-.47,6.42-3.33,0,0,1.16-1.97.93-1.58"></path>
                                        <path class="cls-1" d="m61.75,28.1c3.62-.03-15.31-.08-15.31-.08-1.83,0-3.31,1.44-3.32,3.25,0,1.81,1.46,3.28,3.28,3.29l7.11.03c3.29,3.32,7.93,4.92,12.55,4.33,4.62-.59,8.72-3.29,11.08-7.32,0,0,6.14-10.52,4.91-8.42"></path>
                                      </g>
                                    </g>
                                  </svg>