<svg id="_레이어_1" data-name="레이어 1" xmlns="http://www.w3.org/2000/svg" viewBox="0 0 100 100">
                                    <defs>
                                      <style>
                                        .cls-1 {
                                          fill: none;
                                          stroke: #231f20;
                                          stroke-miterlimit: 10;
                                          stroke-width: 2px;
                                        }
                                  
                                        .cls-2 {
                                          fill: #231f20;
                                        }
                                      </style>
                                    </defs>
                                    <path class="cls-1" d="m20.97,47.87l-2.61-8.25c1.41-4.38,2.4-7.65.71-10.36-1.77-2.85-4.54-3.99-6.23-3.74-1.54,3.84-3.63,14.23-3.74,16.21-.12,2.06-.14,17.32,1.25,18.7,1.53,1.53,16.82,16.82,18.35,18.35,1.53,1.53,1.6,2.79,1.6,3.74v3.6"></path>
                                    <path class="cls-1" d="m81.59,28.48c-1.65-7.95-8.61-12.4-15.54-12.47-8.52-.08-15.91,6.11-15.99,14.38-.08-8.27-7.47-14.47-15.99-14.38-6.92.07-13.88,4.53-15.54,12.47"></path>
                                    <path class="cls-1" d="m79.15,48.02l2.61-8.25c-1.41-4.38-2.4-7.79-.71-10.51,1.77-2.85,4.54-3.99,6.23-3.74,1.54,3.84,3.63,14.23,3.74,16.21.12,2.06.14,17.32-1.25,18.7-1.53,1.53-16.82,16.82-18.35,18.35-1.53,1.53-1.6,2.79-1.6,3.74v3.6"></path>
                                    <path class="cls-1" d="m68.58,66.66s9.98-9.98,11.22-11.22c4.99-4.99-1.25-11.22-6.23-6.23l-6.43,6.43c-.65.65-1.45,1.15-2.32,1.44-3.75,1.24-14.5,5.5-14.81,13.81"></path>
                                    <path class="cls-1" d="m31.42,66.66l-11.22-11.22c-4.99-4.99,1.25-11.22,6.23-6.23l6.43,6.43c.65.65,1.45,1.15,2.32,1.44,3.75,1.24,14.5,5.5,14.81,13.81"></path>
                                    <circle class="cls-2" cx="50.06" cy="30.39" r=".95"></circle>
                                    <circle class="cls-2" cx="69.83" cy="86.16" r=".95"></circle>
                                    <circle class="cls-2" cx="30.29" cy="86.16" r=".95"></circle>
                                    <circle class="cls-2" cx="31.38" cy="66.62" r="1.01"></circle>
                                    <circle class="cls-2" cx="68.63" cy="66.62" r="1.01"></circle>
                                    <path class="cls-2" d="m49,69.96h2v11.06c0,.55-.45,1-1,1h0c-.55,0-1-.45-1-1v-11.06h0Z"></path>
                                  </svg>