<svg version="1.1" id="레이어_1" xmlns="http://www.w3.org/2000/svg" xmlns:xlink="http://www.w3.org/1999/xlink" x="0px" y="0px" viewBox="0 0 99.21 99.21" style="enable-background:new 0 0 99.21 99.21;" xml:space="preserve">
                                <path style="fill:none;stroke:#221F20;stroke-width:1.7;stroke-miterlimit:10;" d="M62.1,76.02L62.1,76.02l0.18,0.18l9.21,9.21
                                    l9.21-9.21l0.18-0.18l0,0c2.45-2.55,2.43-6.61-0.09-9.12c-2.51-2.51-6.57-2.54-9.12-0.09l0,0l-0.18,0.18l-0.18-0.18l-0.06-0.06
                                    c-2.55-2.45-6.55-2.37-9.06,0.14C59.67,69.41,59.65,73.47,62.1,76.02z"></path>
                                <path style="fill:none;stroke:#221F20;stroke-width:1.7;stroke-miterlimit:10;" d="M80.4,59.12c-0.79,2.65,5.86-18.34-9.41-33.3
                                    c-7.54-7.39-23.72-13.31-40.52-4.69c0,0-16.26,7.58-16.98,27.96c-0.03,0.98-0.16,1.92-0.04,3.9c0.99,16.27,12.66,27.74,27.26,31.22
                                    c8.5,2.03,18.81-1.43,17.46-0.99"></path>
                                <path style="fill:none;stroke:#221F20;stroke-width:1.7;stroke-miterlimit:10;" d="M66.67,29.25c0.99,1.04-11.54-13.61-32.56-4.07
                                    c0,0-15.06,6.49-15.75,24.54c0,0-0.09,3.73,0.35,5.74c2.89,13.37,11.26,21.39,23.18,23.77c6.41,1.28,13.61-0.58,12.73-0.38"></path>
                                <path style="fill:none;stroke:#221F20;stroke-width:1.7;stroke-miterlimit:10;" d="M47.21,30.07c0-1.35,0,22.56,0,22.56
                                    s11.17,11.09,8.73,8.67"></path>
                                <path style="fill:none;stroke:#221F20;stroke-width:1.7;stroke-miterlimit:10;" d="M72.02,35.66
                                    C71.77,35.23,71.93,35.49,72.02,35.66c3.61,6.51,4.82,13.49,3.75,20.3c-0.33,2.1-0.39,2.49-0.33,2.1"></path>
                                <path style="fill:none;stroke:#221F20;stroke-width:1.7;stroke-miterlimit:10;" d="M68.6,50.85c-1.05,0,2.28,0,1.49,0"></path>
                                <path style="fill:none;stroke:#221F20;stroke-width:1.7;stroke-miterlimit:10;" d="M32.02,66.77c-0.73,0.75,1.58-1.64,1.03-1.07"></path>
                                <path style="fill:none;stroke:#221F20;stroke-width:1.7;stroke-miterlimit:10;" d="M46.23,73.13c-0.25,1.02,0.54-2.22,0.35-1.44"></path>
                                <path style="fill:none;stroke:#221F20;stroke-width:1.7;stroke-miterlimit:10;" d="M25.09,50.85c-1.05,0,2.28,0,1.49,0"></path>
                                <path style="fill:none;stroke:#221F20;stroke-width:1.7;stroke-miterlimit:10;" d="M61.6,35.94c-0.73,0.75,1.58-1.64,1.03-1.07"></path>
                                <path style="fill:none;stroke:#221F20;stroke-width:1.7;stroke-miterlimit:10;" d="M32.94,35.94c0.73,0.75-1.58-1.64-1.03-1.07"></path>
                                </svg>