<svg id="_레이어_1" data-name="레이어 1" xmlns="http://www.w3.org/2000/svg" viewBox="0 0 100 100">
                                    <defs>
                                        <style>
                                        .cls-1 {
                                            fill: #231f20;
                                            stroke: #221e1f;
                                            stroke-miterlimit: 10;
                                            stroke-width: .25px;
                                        }
                                        </style>
                                    </defs>
                                    <path class="cls-1" d="m91.99,55.69c-.14-.43-.6-.66-1.03-.52l-12.01,4.14c-5.54-8.92-6.86-18.69-5.42-25.59,0-.02.03-.03.03-.03l18.11-7.27c.34-.13.5-.53.35-.86-.16-.35-.56-.51-.92-.37l-18.91,7.39c-.06.25-.09.58-.16.9l-4.83.71c-.75.11-1.52-.08-2.13-.53-4.91-3.57-11.47-8.03-13.74-8.19-1.11-.08-3.8.44-6.78,1.13l-.49-.29c-2.31-.94-5.7-1.7-8.66-1.7-4.01,0-12.57,6.55-16.23,8.82-.09-.47-.14-.64-.2-.86l-11.94-5.81c-.44-.18-.88.05-.99.51-.09.37.1.75.46.9l11.08,5.3s.02.02.03.03c1.41,6.7.1,16.77-5.57,25.89-.02,0-.03.01-.05.02l-5.01-1.14c-.49-.11-.95.26-.95.76,0,.36.25.68.61.76l6.09,1.37s.03-.01.05-.02c.28-.45,1.29-1.9,2.59-4.51.01-.02.04-.03.06-.02.54.22.95.45,1.27.65.02.02.03.05,0,.07-1.39,1.51-2.21,3.88-.95,5.53.7.91,1.64,1.37,2.47,1.53.02,0,.03.02.03.04,0,1.04.26,2.27.9,3.12.9,1.19,2.66,1.77,3.52,1.99.01.01.02.02.03.03,1.11,3.39,1.51,3.89,5.51,5.25.01,0,.02.01.03.03.22.61.67,1.75,1.22,2.31.45.46,1.82,1.32,3.75,1.32,2.23,0,3.79-1.05,5.41-2.41.02-.01.04-.01.05,0,1.18.83,2.78,1.5,4.29,1.5,2.33,0,3.85-1.48,4.62-2.22.08-.08.18-.17.25-.24,1.03.24,3.82,2.34,7.39-1.23.62-.62.81-1.27.87-1.74,0-.02.02-.04.04-.04.88.08,2.04.22,2.88-.02,1.14-.33,3.32-1.32,5.05-4.2.24-.41.21-.8.16-1.23,1.6-.15,2.26-.04,4.65-3.11.91-1.35,1.4-3.25.91-4.9,0-.02,0-.04.03-.05,1.15-.25,4.13-.92,6.24-1.39.02,0,.04,0,.05.02,1.1,2.12,2.29,3.91,2.33,3.94v.03s13.03-4.48,13.03-4.48c.43-.14.66-.6.52-1.03Zm-73.17,7.21s-.02.01-.03,0c-.33-.02-1.18-.16-1.81-.98-.89-1.17.43-3.03.5-3.13.89-1.14,3.24-2.98,3.99-3.53.37-.28.82-.42,1.29-.42,1.95,0,2.89,2.17,1.83,3.53-.03.04-.06.09-.08.13l-5.7,4.39Zm4.25,5.15c-.7-.18-2.1-.65-2.68-1.43-.46-.6-.64-1.68-.58-2.51,0-.01,0-.03.02-.03,8.49-6.49,8.44-6.72,9.56-6.72,1.23,0,2.12,1.04,2.22,2.15.16,1.79-1.45,2.58-8.5,8.52-.01,0-.03.01-.04.01Zm5.6,5.27s-.03.01-.05,0c-3.27-1.1-3.48-1.28-4.42-4.14,0-.02,0-.04.01-.05l5.99-4.96h.04c.2-.15.89-.78,2.97-2.12,1.5-.97,3.49-.21,3.76,1.57.19,1.25-.69,2.47-2.06,3.91,0,0,0,0,0,0l-6.24,5.79Zm7.85,2.43c-1.07.78-2.18,1.18-3.31,1.18-1.34,0-2.38-.59-2.65-.86-.27-.27-.6-1.02-.82-1.6,0-.02,0-.04.01-.05l5.98-5.55h.02c.1-.07,2.02-2.02,4.06-2.02,1.45,0,2.27,1.02,2.02,2.43-.39,2.18-3.01,4.78-5.33,6.48Zm9.46-1.02c-1.04.91-2.71,1.94-5.26.73-.31-.15-.55-.26-.88-.47,1.04-.99,2.14-2.22,2.84-3.55.01-.02.04-.03.07-.01l3.19,2.41c.29.22.32.66.04.9Zm22.1-13.02c-.67,1.71-2.2,3.2-3.61,3.35-.6.06-1.21-.1-1.69-.47l-13.76-10.31c-.08-.06-.22-.08-.38-.08-.54-.01-.9.58-.6,1.03.03.04.06.08.09.1l13.6,10.37c.7.53.87,1.51.39,2.25-1.73,2.67-3.86,2.79-5.29,2.68-.8-.07-1.57-.35-2.21-.83-7.23-5.44-14.09-10.74-14.4-10.74-.49,0-.83.82-.44,1.11l14.23,11.03c.5.38.55,1.12.11,1.57,0,0,0,0-.01.01-2.5,2.5-4.12,1.48-5.44.98-.57-.22-1.11-.52-1.62-.87l-3.84-2.68s-.02-.03-.02-.05c.98-3.21-1.5-5.64-4.91-4.64-.03.01-.06-.02-.05-.06,1.26-3.33-1.88-6.34-5.09-5.13-.03.01-.06-.01-.06-.04.34-2.21-1.34-4.49-3.74-4.49-1.31,0-2.06.6-2.74,1.1-.03.02-.07,0-.07-.03-.16-3.08-3.69-4.58-6.03-2.86-.02.01-1.39,1.03-2.65,2.16-.02.01-.04.02-.05,0-.41-.28-.97-.62-1.76-.96-.02,0-.04-.04-.02-.06,3.13-6.92,4.09-14.07,3.38-20.04,0-.02,0-.03.02-.04,3.05-1.75,12.36-8.91,15.95-8.91,2.53,0,4.92.57,6.42,1.02.04.01.04.08,0,.09-3.38.86-6.65,1.81-8.05,2.28-1.35.46-1.73,1.33-2.84,3.02,0,0,0,0,0,0-6.09,7.76-6.62,8.24-6.62,9.17,0,.87.82,1.96,2.05,2.72.22.15,3.78,2.51,7.71.49,1.27-.65,3.75-2.53,5.6-4,1.47-1.16,2.48-1.04,5.26-1.98.01,0,.03,0,.04,0,2.41,1.93,17.63,14.68,22.07,18.59,1.17,1.03,1.61,2.68,1.04,4.13Zm7.25-5.94c-1.97.44-5.22,1.16-6.38,1.42-.01,0-.03,0-.04,0-3.16-2.91-20.92-17.76-23.08-19.48-.33-.26-.59-.47-1.01-.32-3.04,1.08-4.27.91-6.12,2.37-2.55,2.01-4.45,3.37-5.35,3.83-2.94,1.51-5.65-.09-6.07-.36l-.09-.06c-.93-.57-1.3-1.21-1.34-1.4,0,0,0-.01,0-.02.15-.49,2.03-2.78,6.31-8.24,0,0,0,0,0,0,1.22-1.86,1.35-2.23,2.1-2.49,3.43-1.17,14.71-4.16,16.95-4.01,1.37.09,6.16,3,12.5,7.58,1.05.76,2.35,1.32,3.63,1.13l4.35-.64s.05.02.05.05c-.79,6.21.26,13.44,3.6,20.57.01.03,0,.06-.03.06Z"></path>
                                    </svg>