<svg version="1.1" id="레이어_1" xmlns="http://www.w3.org/2000/svg" xmlns:xlink="http://www.w3.org/1999/xlink" x="0px" y="0px" viewBox="0 0 100 100" style="enable-background:new 0 0 100 100;" xml:space="preserve">
                                    <style type="text/css">
                                        .st0{fill:#231F20;stroke:#221E1F;stroke-width:0.25;stroke-miterlimit:10;}
                                        .st1{fill:none;stroke:#231F20;stroke-width:2;stroke-miterlimit:10;}
                                        .st2{fill:#231F20;}
                                        .st3{fill:#FFFFFF;stroke:#231F20;stroke-width:0.25;stroke-miterlimit:10;}
                                        .st4{fill:#231F20;stroke:#231F20;stroke-width:0.25;stroke-miterlimit:10;}
                                        .st5{fill:#23282D;}
                                        .st6{fill:none;stroke:#23282D;stroke-width:2;stroke-miterlimit:10;}
                                    </style>
                                    <path class="st0" d="M-283.78-71.03c-0.14-0.43-0.6-0.66-1.03-0.52l-12.01,4.14c-5.54-8.92-6.86-18.69-5.42-25.59
                                        c0-0.02,0.03-0.03,0.03-0.03l18.11-7.27c0.34-0.13,0.5-0.53,0.35-0.86c-0.16-0.35-0.56-0.51-0.92-0.37l-18.91,7.39
                                        c-0.06,0.25-0.09,0.58-0.16,0.9l-4.83,0.71c-0.75,0.11-1.52-0.08-2.13-0.53c-4.91-3.57-11.47-8.03-13.74-8.19
                                        c-1.11-0.08-3.8,0.44-6.78,1.13l-0.49-0.29c-2.31-0.94-5.7-1.7-8.66-1.7c-4.01,0-12.57,6.55-16.23,8.82
                                        c-0.09-0.47-0.14-0.64-0.2-0.86l-11.94-5.81c-0.44-0.18-0.88,0.05-0.99,0.51c-0.09,0.37,0.1,0.75,0.46,0.9l11.08,5.3
                                        c0.01,0.01,0.02,0.02,0.03,0.03c1.41,6.7,0.1,16.77-5.57,25.89c-0.02,0.01-0.03,0.01-0.05,0.02l-5.01-1.14
                                        c-0.49-0.11-0.95,0.26-0.95,0.76c0,0.36,0.25,0.68,0.61,0.76l6.09,1.37c0.02-0.01,0.03-0.01,0.05-0.02c0.28-0.45,1.29-1.9,2.59-4.51
                                        c0.01-0.02,0.04-0.03,0.06-0.02c0.54,0.22,0.95,0.45,1.27,0.65c0.02,0.02,0.03,0.05,0.01,0.07c-1.39,1.51-2.21,3.88-0.95,5.53
                                        c0.7,0.91,1.64,1.37,2.47,1.53c0.02,0,0.03,0.02,0.03,0.04c0,1.04,0.26,2.27,0.9,3.12c0.9,1.19,2.66,1.77,3.52,1.99
                                        c0.01,0.01,0.02,0.02,0.03,0.03c1.11,3.39,1.51,3.89,5.51,5.25c0.01,0,0.02,0.01,0.03,0.03c0.22,0.61,0.67,1.75,1.22,2.31
                                        c0.45,0.46,1.82,1.32,3.75,1.32c2.23,0,3.79-1.05,5.41-2.41c0.02-0.01,0.04-0.01,0.05,0c1.18,0.83,2.78,1.5,4.29,1.5
                                        c2.33,0,3.85-1.48,4.62-2.22c0.08-0.08,0.18-0.17,0.25-0.24c1.03,0.24,3.82,2.34,7.39-1.23c0.62-0.62,0.81-1.27,0.87-1.74
                                        c0-0.02,0.02-0.04,0.04-0.04c0.88,0.08,2.04,0.22,2.88-0.02c1.14-0.33,3.32-1.32,5.05-4.2c0.24-0.41,0.21-0.8,0.16-1.23
                                        c1.6-0.15,2.26-0.04,4.65-3.11c0.91-1.35,1.4-3.25,0.91-4.9c-0.01-0.02,0-0.04,0.03-0.05c1.15-0.25,4.13-0.92,6.24-1.39
                                        c0.02,0,0.04,0.01,0.05,0.02c1.1,2.12,2.29,3.91,2.33,3.94l0.01,0.03L-284.3-70C-283.87-70.15-283.64-70.61-283.78-71.03z
                                        M-356.95-63.82c-0.01,0.01-0.02,0.01-0.03,0.01c-0.33-0.02-1.18-0.16-1.81-0.98c-0.89-1.17,0.43-3.03,0.5-3.13
                                        c0.89-1.14,3.24-2.98,3.99-3.53c0.37-0.28,0.82-0.42,1.29-0.42c1.95,0,2.89,2.17,1.83,3.53c-0.03,0.04-0.06,0.09-0.08,0.13
                                        L-356.95-63.82z M-352.71-58.67c-0.7-0.18-2.1-0.65-2.68-1.43c-0.46-0.6-0.64-1.68-0.58-2.51c0-0.01,0.01-0.03,0.02-0.03
                                        c8.49-6.49,8.44-6.72,9.56-6.72c1.23,0,2.12,1.04,2.22,2.15c0.16,1.79-1.45,2.58-8.5,8.52C-352.68-58.67-352.69-58.67-352.71-58.67z
                                        M-347.1-53.4c-0.01,0.01-0.03,0.01-0.05,0.01c-3.27-1.1-3.48-1.28-4.42-4.14c-0.01-0.02,0-0.04,0.01-0.05l5.99-4.96l0.04,0
                                        c0.2-0.15,0.89-0.78,2.97-2.12c1.5-0.97,3.49-0.21,3.76,1.57c0.19,1.25-0.69,2.47-2.06,3.91c0,0,0,0,0,0L-347.1-53.4z
                                        M-339.25-50.97c-1.07,0.78-2.18,1.18-3.31,1.18c-1.34,0-2.38-0.59-2.65-0.86c-0.27-0.27-0.6-1.02-0.82-1.6
                                        c-0.01-0.02,0-0.04,0.01-0.05l5.98-5.55h0.02c0.1-0.07,2.02-2.02,4.06-2.02c1.45,0,2.27,1.02,2.02,2.43
                                        C-334.31-55.26-336.93-52.67-339.25-50.97z M-329.79-51.99c-1.04,0.91-2.71,1.94-5.26,0.73c-0.31-0.15-0.55-0.26-0.88-0.47
                                        c1.04-0.99,2.14-2.22,2.84-3.55c0.01-0.02,0.04-0.03,0.07-0.01l3.19,2.41C-329.54-52.67-329.51-52.23-329.79-51.99z M-307.68-65.01
                                        c-0.67,1.71-2.2,3.2-3.61,3.35c-0.6,0.06-1.21-0.1-1.69-0.47l-13.76-10.31c-0.08-0.06-0.22-0.08-0.38-0.08
                                        c-0.54-0.01-0.9,0.58-0.6,1.03c0.03,0.04,0.06,0.08,0.09,0.1l13.6,10.37c0.7,0.53,0.87,1.51,0.39,2.25
                                        c-1.73,2.67-3.86,2.79-5.29,2.68c-0.8-0.07-1.57-0.35-2.21-0.83c-7.23-5.44-14.09-10.74-14.4-10.74c-0.49,0-0.83,0.82-0.44,1.11
                                        l14.23,11.03c0.5,0.38,0.55,1.12,0.11,1.57c0,0-0.01,0.01-0.01,0.01c-2.5,2.5-4.12,1.48-5.44,0.98c-0.57-0.22-1.11-0.52-1.62-0.87
                                        l-3.84-2.68c-0.02-0.01-0.02-0.03-0.02-0.05c0.98-3.21-1.5-5.64-4.91-4.64c-0.03,0.01-0.06-0.02-0.05-0.06
                                        c1.26-3.33-1.88-6.34-5.09-5.13c-0.03,0.01-0.06-0.01-0.06-0.04c0.34-2.21-1.34-4.49-3.74-4.49c-1.31,0-2.06,0.6-2.74,1.1
                                        c-0.03,0.02-0.07,0-0.07-0.03c-0.16-3.08-3.69-4.58-6.03-2.86c-0.02,0.01-1.39,1.03-2.65,2.16c-0.02,0.01-0.04,0.02-0.05,0
                                        c-0.41-0.28-0.97-0.62-1.76-0.96c-0.02-0.01-0.04-0.04-0.02-0.06c3.13-6.92,4.09-14.07,3.38-20.04c0-0.02,0-0.03,0.02-0.04
                                        c3.05-1.75,12.36-8.91,15.95-8.91c2.53,0,4.92,0.57,6.42,1.02c0.04,0.01,0.04,0.08-0.01,0.09c-3.38,0.86-6.65,1.81-8.05,2.28
                                        c-1.35,0.46-1.73,1.33-2.84,3.02c0,0,0,0,0,0c-6.09,7.76-6.62,8.24-6.62,9.17c0,0.87,0.82,1.96,2.05,2.72
                                        c0.22,0.15,3.78,2.51,7.71,0.49c1.27-0.65,3.75-2.53,5.6-4c1.47-1.16,2.48-1.04,5.26-1.98c0.01,0,0.03,0,0.04,0.01
                                        c2.41,1.93,17.63,14.68,22.07,18.59C-307.56-68.11-307.12-66.46-307.68-65.01z M-300.44-70.94c-1.97,0.44-5.22,1.16-6.38,1.42
                                        c-0.01,0-0.03,0-0.04-0.01c-3.16-2.91-20.92-17.76-23.08-19.48c-0.33-0.26-0.59-0.47-1.01-0.32c-3.04,1.08-4.27,0.91-6.12,2.37
                                        c-2.55,2.01-4.45,3.37-5.35,3.83c-2.94,1.51-5.65-0.09-6.07-0.36l-0.09-0.06c-0.93-0.57-1.3-1.21-1.34-1.4c0-0.01,0-0.01,0-0.02
                                        c0.15-0.49,2.03-2.78,6.31-8.24c0,0,0,0,0,0c1.22-1.86,1.35-2.23,2.1-2.49c3.43-1.17,14.71-4.16,16.95-4.01
                                        c1.37,0.09,6.16,3,12.5,7.58c1.05,0.76,2.35,1.32,3.63,1.13l4.35-0.64c0.03,0,0.05,0.02,0.05,0.05c-0.79,6.21,0.26,13.44,3.6,20.57
                                        C-300.4-70.98-300.41-70.95-300.44-70.94z"></path>
                                    <path class="st1" d="M-228.52-78.86l-2.61-8.25c1.41-4.38,2.4-7.65,0.71-10.36c-1.77-2.85-4.54-3.99-6.23-3.74
                                        c-1.54,3.84-3.63,14.23-3.74,16.21c-0.12,2.06-0.14,17.32,1.25,18.7c1.53,1.53,16.82,16.82,18.35,18.35c1.53,1.53,1.6,2.79,1.6,3.74
                                        v3.6"></path>
                                    <path class="st1" d="M-167.9-98.25c-1.65-7.95-8.61-12.4-15.54-12.47c-8.52-0.08-15.91,6.11-15.99,14.38
                                        c-0.08-8.27-7.47-14.47-15.99-14.38c-6.92,0.07-13.88,4.53-15.54,12.47"></path>
                                    <path class="st1" d="M-170.34-78.71l2.61-8.25c-1.41-4.38-2.4-7.79-0.71-10.51c1.77-2.85,4.54-3.99,6.23-3.74
                                        c1.54,3.84,3.63,14.23,3.74,16.21c0.12,2.06,0.14,17.32-1.25,18.7c-1.53,1.53-16.82,16.82-18.35,18.35c-1.53,1.53-1.6,2.79-1.6,3.74
                                        v3.6"></path>
                                    <path class="st1" d="M-180.91-60.06c0,0,9.98-9.98,11.22-11.22c4.99-4.99-1.25-11.22-6.23-6.23l-6.43,6.43
                                        c-0.65,0.65-1.45,1.15-2.32,1.44c-3.75,1.24-14.5,5.5-14.81,13.81"></path>
                                    <path class="st1" d="M-218.07-60.06c0,0-9.98-9.98-11.22-11.22c-4.99-4.99,1.25-11.22,6.23-6.23l6.43,6.43
                                        c0.65,0.65,1.45,1.15,2.32,1.44c3.75,1.24,14.5,5.5,14.81,13.81"></path>
                                    <circle class="st2" cx="-199.43" cy="-96.34" r="0.95"></circle>
                                    <circle class="st2" cx="-179.66" cy="-40.57" r="0.95"></circle>
                                    <circle class="st2" cx="-219.21" cy="-40.57" r="0.95"></circle>
                                    <circle class="st2" cx="-218.12" cy="-60.11" r="1.01"></circle>
                                    <circle class="st2" cx="-180.87" cy="-60.11" r="1.01"></circle>
                                    <polygon class="st3" points="-47.63,-111.18 -47.64,-111.18 -47.63,-111.18 "></polygon>
                                    <path class="st4" d="M-113.46-67.2c0,6.45,5.25,11.7,11.7,11.7s11.7-5.25,11.7-11.7l-0.01-0.1v0v0l-0.02-0.11l0,0l-0.04-0.12
                                        l-10.54-23.54l21.51-7.32l0.16,0.26c0.74,1.23,1.97,2.11,3.37,2.42l0.3,0.06v47.43h-10.34c-0.44,0-0.8,0.36-0.8,0.8
                                        s0.36,0.8,0.8,0.8h22.28c0.44,0,0.8-0.36,0.8-0.8s-0.36-0.8-0.8-0.8h-10.34v-47.43l0.3-0.06c2.38-0.51,4.11-2.66,4.11-5.09
                                        c0-0.2-0.01-0.4-0.04-0.6l-0.04-0.3l20.61-7.01L-59-85.71c0,6.45,5.25,11.69,11.7,11.69s11.7-5.25,11.7-11.7l0,0l0-0.06l-0.04-0.21
                                        l-10.92-24.4l-0.02-0.05l-0.02-0.04l0,0l-0.06-0.08c0,0,0,0,0,0l0,0l-0.18-0.17h0h0l-0.1-0.05l-0.07-0.02l-0.04-0.02l-0.23-0.04
                                        l-0.22,0.03l-22.39,7.61l-0.16-0.26c-0.74-1.23-1.97-2.11-3.37-2.42l-0.3-0.06v-5.15c0-0.44-0.36-0.8-0.8-0.8s-0.8,0.36-0.8,0.8
                                        v5.15l-0.3,0.06c-2.38,0.51-4.11,2.66-4.11,5.09c0,0.2,0.01,0.4,0.04,0.6l0.04,0.3l-22.53,7.69l0,0l-0.08,0.05l-0.07,0.07
                                        c0,0,0,0,0,0l0,0l-0.14,0.21l-10.9,24.35 M-113.45-67.29 M-113.43-67.4 M-91.73-65.97c-0.61,5.06-4.92,8.87-10.02,8.87
                                        s-9.41-3.81-10.02-8.87l-0.05-0.42h20.15L-91.73-65.97z M-92.1-68h-19.32l9.66-21.58L-92.1-68z M-74.53-97.19
                                        c-1.99,0-3.61-1.62-3.61-3.61c0-1.99,1.62-3.61,3.61-3.61c1.99,0,3.61,1.62,3.61,3.61C-70.92-98.81-72.54-97.19-74.53-97.19z
                                        M-37.27-84.5c-0.61,5.06-4.92,8.87-10.02,8.87c-5.1,0-9.41-3.81-10.02-8.87l-0.05-0.42h20.15L-37.27-84.5z M-37.64-86.52h-19.32
                                        l9.66-21.58L-37.64-86.52z"></path>
                                    <polygon class="st4" points="-102.22,-92.19 -102.22,-92.19 -102.22,-92.19 "></polygon>
                                    <path class="st4" d="M-54.01-43.15h-41.03c-0.44,0-0.8,0.36-0.8,0.8s0.36,0.8,0.8,0.8h41.03c0.44,0,0.8-0.36,0.8-0.8
                                        S-53.57-43.15-54.01-43.15z"></path>
                                    <g>
                                        <path class="st1" d="M43.95-73.51L43.95-73.51l0.16,0.16l8.32,8.32l8.32-8.32l0.16-0.16l0,0c2.22-2.3,2.19-5.97-0.08-8.24
                                            c-2.27-2.27-5.94-2.3-8.24-0.08l0,0l-0.16,0.16l-0.16-0.16l0,0c-2.3-2.22-5.97-2.19-8.24,0.08C41.76-79.48,41.74-75.81,43.95-73.51
                                            z"></path>
                                        <g>
                                            <g>
                                                <g>
                                                    <line class="st1" x1="50" y1="-51.67" x2="50" y2="-51.67"></line>
                                                </g>
                                                <g>
                                                    <path class="st1" d="M61.74-54.88l16.3-13.52c0.51-0.43,1.14-0.64,1.74-0.65l0,0c0.6-0.01,1.18,0.19,1.64,0.67
                                                        c0.93,0.93,0.79,2.32-0.02,3.38L68.74-48.52c-1.98,2.51-3.7,4.11-7.39,4.09l-18.88-0.09c-3.76-0.02-4.76,0.47-6.42,3.33
                                                        c0,0-1.17,1.97-0.93,1.58"></path>
                                                </g>
                                                <g>
                                                    <path class="st1" d="M43.12-51.71c0,3.83,15.31,0.08,15.31,0.08c1.83,0.01,3.31-1.44,3.32-3.25c0.01-1.81-1.46-3.28-3.28-3.29
                                                        l-7.11-0.03c-3.29-3.32-7.93-4.92-12.55-4.33c-4.62,0.59-8.72,3.29-11.08,7.32c0,0-6.11,10.54-4.91,8.42"></path>
                                                </g>
                                            </g>
                                            <g>
                                                <g>
                                                    <line class="st1" x1="54.87" y1="-98.66" x2="54.87" y2="-98.66"></line>
                                                </g>
                                                <g>
                                                    <path class="st1" d="M43.13-95.45l-16.3,13.52c-0.51,0.43-1.14,0.64-1.74,0.65l0,0c-0.6,0.01-1.18-0.19-1.64-0.67
                                                        c-0.93-0.93-0.79-2.32,0.02-3.38l12.66-16.49c1.98-2.51,3.7-4.11,7.39-4.09l18.88,0.09c3.76,0.02,4.76-0.47,6.42-3.33
                                                        c0,0,1.16-1.97,0.93-1.58"></path>
                                                </g>
                                                <g>
                                                    <path class="st1" d="M61.75-98.63c3.62-0.03-15.31-0.08-15.31-0.08c-1.83-0.01-3.31,1.44-3.32,3.25
                                                        c-0.01,1.81,1.46,3.28,3.28,3.29l7.11,0.03c3.29,3.32,7.93,4.92,12.55,4.33c4.62-0.59,8.72-3.29,11.08-7.32
                                                        c0,0,6.14-10.52,4.91-8.42"></path>
                                                </g>
                                            </g>
                                        </g>
                                    </g>
                                    <path class="st2" d="M-199.49-44.7L-199.49-44.7c-0.55,0-1-0.45-1-1v-11.06h2v11.06C-198.49-45.15-198.94-44.7-199.49-44.7z"></path>
                                    <path class="st1" d="M-333.58,69.07c2.85,4,6.4,8.19,6.4,8.19s8.64-1.46,17.42-5.1"></path>
                                    <path class="st1" d="M-343.81,66.61c0,0,0,35.44,0,28.35"></path>
                                    <path class="st1" d="M-318.56,75.21c0,0,0,24.68,0,19.74"></path>
                                    <path class="st1" d="M-330.04,83.96c0-2.75,0,13.74,0,10.99"></path>
                                    <path class="st1" d="M-303.64,73.63h-2.3c-3.17,0-5.74-2.57-5.74-5.74l0,0c0-3.17,2.57-5.74,5.74-5.74h2.3
                                        c3.17,0,5.74,2.57,5.74,5.74l0,0C-297.9,71.06-300.47,73.63-303.64,73.63z"></path>
                                    <path class="st1" d="M-298.38,65.68c2.35-1.92,4.28-4.11,5.5-6.61c4.34-8.93-0.41-17.02-7.04-19.43c-6.64-2.42-14.1,0.53-16.52,7.17
                                        c2.28-6.69-1.69-13.66-8.38-15.94c-6.68-2.28-15.45,1.04-17.67,10.72c-0.7,3.05-0.44,6.37,0.4,9.73l0.01,0c0,0,1.12,5.1,4.02,5.75
                                        c0,0,5.99,1.57,9.18,2.32c6.53,1.53,5.86,9.18-0.5,9.95c0,0-1.78,0.06-3.07-0.1c-2.42-0.31-8.33-1.51-8.33-1.51
                                        c-3.01-0.76-6-1.86-7.7-5.57c-0.28-0.6-1.11-2.4-1.11-2.4c-1.76-3.8-1.89-5.84-1.89-8.93c0-3.75,4.54-11.79,3.53-9.89l0,0"></path>
                                    <path class="st1" d="M-341.81,31.73c0.28,0.53-2-3.82-2-6.16v-3.44c0-5.39,3.93-9.76,9.18-9.76c5.26,0,9.18,4.37,9.18,9.76
                                        c0,0,0,4.3,0,3.44"></path>
                                    <g>
                                        <path d="M-221.62,33.46v0.45c-0.75,0.06-1.15,0.49-1.56,1.19l-3.52,6.41v4.45c0,0.79,0.2,1.15,0.97,1.21v0.45h-4.07v-0.45
                                            c0.75-0.06,0.95-0.43,0.95-1.21v-4.25l-4.07-6.62c-0.4-0.67-0.77-1.13-1.52-1.19v-0.45h4.35v0.45c-0.65,0-0.95,0.47-0.59,1.09
                                            l3.46,5.79l3.2-5.75c0.32-0.67,0.1-1.11-0.63-1.13v-0.45H-221.62z"></path>
                                        <path d="M-212.48,42.82c0,3.16-2.39,5-5.08,5s-5.08-1.84-5.08-5c0-3.16,2.39-4.98,5.08-4.98S-212.48,39.67-212.48,42.82z
                                            M-214.66,42.82c0-2.63-1.07-4.41-2.89-4.41c-1.82,0-2.89,1.78-2.89,4.41s1.07,4.41,2.89,4.41
                                            C-215.73,47.24-214.66,45.45-214.66,42.82z"></path>
                                        <path d="M-200.02,47.17v0.45h-3.08v-1.15c-0.71,0.91-1.72,1.35-2.91,1.35c-2.49,0-4.01-1.52-4.01-3.82v-3.78
                                            c0-0.79-0.2-1.15-0.95-1.21v-0.45l2.73-0.71h0.34v6.35c0,1.84,0.85,2.83,2.43,2.83c1.34,0,2.37-1.13,2.37-2.65v-4.17
                                            c0-0.79-0.2-1.15-0.95-1.21v-0.45l2.73-0.71h0.34v8.13C-200.97,46.77-200.77,47.11-200.02,47.17z"></path>
                                        <path d="M-184.95,47.09c-0.43,0.53-0.99,0.73-1.6,0.73c-0.77,0-1.7-0.36-1.72-1.56c-0.51,0.99-1.58,1.56-2.77,1.56
                                            c-1.58,0-3.3-0.69-3.4-2.47c-0.14-2.1,1.5-3.06,3.52-3.24c1.25-0.1,2.17-0.18,2.65-0.22c0-0.49,0-0.79,0-0.79
                                            c0-1.78-0.43-2.73-1.82-2.83c-0.77-0.04-1.62,0.39-1.58,1.36c0.04,1.09-0.69,1.4-1.34,1.15c-0.55-0.22-0.71-0.85-0.4-1.48
                                            c0.53-1.13,2.04-1.46,3.26-1.46c1.88,0,3.99,0.63,3.99,3.62v4.77c0,0.73,0.57,0.85,1.01,0.5L-184.95,47.09z M-188.27,44.36
                                            c0-0.67,0-1.4,0-2c-0.3,0.04-0.81,0.08-1.6,0.18c-1.66,0.2-2.57,1.21-2.55,2.49c0.02,1.4,0.91,2.06,2.02,2.02
                                            C-189.1,47.01-188.27,46-188.27,44.36z"></path>
                                        <path d="M-176.38,40.58c-0.67,0.22-1.4-0.02-1.48-1.01c-0.08-0.75-0.49-0.89-1.05-0.79c-0.81,0.14-1.66,1.23-1.66,2.69v4.51
                                            c0,0.79,0.2,1.13,0.95,1.19v0.45h-4.02v-0.45c0.75-0.06,0.95-0.4,0.95-1.19v-5.77c0-0.79-0.2-1.15-0.95-1.21v-0.45l2.69-0.71h0.32
                                            v1.72c0.57-1.11,1.48-1.7,2.65-1.72c0.95-0.02,1.9,0.4,2.18,1.25C-175.63,39.65-175.81,40.38-176.38,40.58z"></path>
                                        <path d="M-165.68,42.5h-6.96c0,0.06,0,0.12,0.02,0.18c0.22,4.47,4.77,4.9,6.54,2.61l0.28,0.24c-0.69,1.34-2.23,2.28-3.95,2.28
                                            c-2.67,0-4.98-1.96-4.98-5.14c0-3.08,2.08-4.84,4.78-4.84c2.93,0,4.31,2.04,4.27,4.53V42.5z M-172.62,41.77h5
                                            c0.06-1.8-0.69-3.5-2.37-3.48C-171.4,38.31-172.48,39.65-172.62,41.77z"></path>
                                        <path d="M-209.06,71.44v0.45h-4.05v-0.45c0.77-0.06,0.97-0.43,0.97-1.21V59.36c0-0.79-0.2-1.13-0.97-1.19v-0.45l2.75-0.73h0.32
                                            v13.23C-210.03,71.02-209.83,71.38-209.06,71.44z"></path>
                                        <path d="M-203.62,71.44v0.45h-4.03v-0.45c0.75-0.06,0.95-0.43,0.95-1.21v-5.75c0-0.79-0.2-1.15-0.95-1.21v-0.45l2.75-0.71h0.32
                                            v8.11C-204.57,71.02-204.37,71.38-203.62,71.44z M-207.2,59.34c0-0.87,0.65-1.36,1.42-1.36c0.77,0,1.42,0.49,1.42,1.36
                                            c0,0.87-0.65,1.36-1.42,1.36C-206.55,60.7-207.2,60.21-207.2,59.34z"></path>
                                        <path d="M-195.49,60.19c-0.4,0.28-1.03,0.18-1.27-0.24c-0.22-0.4-0.24-0.95-0.39-1.29c-0.22-0.49-0.5-0.67-1.03-0.65
                                            c-0.71,0.04-1.07,0.63-1.03,1.35c0.1,1.28,0.45,0.93,0.45,2.79v0.14h2.51v0.73h-2.51v7.2c0,0.79,0.2,1.15,0.97,1.21v0.45h-4.03
                                            v-0.45c0.75-0.06,0.95-0.43,0.95-1.21v-7.2h-1.74V62.3h1.74v-0.81c0-2.14,0.69-3.97,2.81-4.03c1.01-0.02,1.98,0.3,2.61,1.11
                                            C-195.16,58.94-194.9,59.77-195.49,60.19z"></path>
                                        <path d="M-186.79,66.77h-6.96c0,0.06,0,0.12,0.02,0.18c0.22,4.47,4.77,4.9,6.54,2.61l0.28,0.24c-0.69,1.34-2.23,2.29-3.95,2.29
                                            c-2.67,0-4.98-1.96-4.98-5.14c0-3.08,2.08-4.84,4.78-4.84c2.93,0,4.31,2.04,4.27,4.53V66.77z M-193.73,66.04h5
                                            c0.06-1.8-0.69-3.5-2.37-3.48C-192.52,62.58-193.59,63.92-193.73,66.04z"></path>
                                    </g>
                                    <g>
                                        <g>
                                            <path class="st5" d="M-73.09,59.76c-0.28,0-0.57-0.11-0.78-0.32l-8.97-8.97c-0.21-0.21-0.32-0.49-0.32-0.78V27.52
                                                c0-0.61,0.5-1.11,1.11-1.11s1.11,0.5,1.11,1.11v21.7l8.65,8.65c0.43,0.43,0.43,1.14,0,1.57C-72.52,59.66-72.81,59.76-73.09,59.76z
                                                "></path>
                                        </g>
                                        <g>
                                            <path class="st5" d="M-81.85,85.08c-1.92,0-3.86-0.17-5.8-0.5c-5.36-0.92-10.57-3.13-15.07-6.38c-4.48-3.24-8.19-7.46-10.72-12.22
                                                c-2.72-5.1-4.04-10.59-3.94-16.32c0.25-7.63,2.17-14.28,5.73-19.78c3.24-5.01,7.67-8.88,13.18-11.49c6.07-2.88,13.01-4,20.07-3.25
                                                c7.06,0.75,13.62,3.3,18.95,7.38c4.84,3.71,8.37,8.42,10.49,14c2.33,6.13,2.82,13.04,1.47,20.53c-0.11,0.6-0.69,1-1.29,0.89
                                                c-0.6-0.11-1-0.69-0.89-1.29c2.44-13.52-1.51-25.02-11.12-32.38c-5.01-3.83-11.17-6.23-17.83-6.94
                                                c-6.66-0.7-13.19,0.35-18.89,3.05c-10.93,5.18-17.2,15.6-17.64,29.32c-0.1,5.33,1.14,10.46,3.68,15.22
                                                c2.38,4.46,5.86,8.42,10.07,11.47c8.85,6.4,20,8.15,29.84,4.7c0.58-0.2,1.21,0.1,1.41,0.68c0.2,0.58-0.1,1.21-0.68,1.41
                                                C-74.44,84.45-78.12,85.08-81.85,85.08z"></path>
                                        </g>
                                        <g>
                                            <path class="st5" d="M-53.89,57.83c-0.09,0-0.19-0.01-0.28-0.04c-0.59-0.15-0.95-0.76-0.79-1.35c1.8-6.9,0.54-15.23-3.21-21.22
                                                c-0.33-0.52-0.17-1.2,0.35-1.53c0.52-0.33,1.2-0.17,1.53,0.35c4.12,6.58,5.45,15.37,3.48,22.95
                                                C-52.95,57.5-53.4,57.83-53.89,57.83z"></path>
                                        </g>
                                        <g>
                                            <path class="st5" d="M-82.01,79.87c-2.08,0-4.18-0.23-6.27-0.69c-4.37-0.96-8.59-2.94-12.2-5.74
                                                c-7.58-5.86-11.85-14.52-11.72-23.75c-0.21-6.17,1.57-12.06,5.15-17.03c3.31-4.59,7.97-8.23,13.48-10.51
                                                c5.55-2.3,11.47-3.03,17.11-2.12c6.1,0.98,11.54,3.88,15.72,8.37c0.42,0.45,0.39,1.15-0.06,1.57c-0.45,0.42-1.15,0.39-1.57-0.06
                                                c-3.85-4.13-8.84-6.79-14.45-7.69c-5.24-0.85-10.74-0.16-15.91,1.98c-5.13,2.13-9.47,5.5-12.53,9.76c-3.3,4.58-4.93,10-4.73,15.68
                                                c0,0.02,0,0.04,0,0.06c-0.13,8.54,3.83,16.56,10.86,21.99c3.35,2.59,7.27,4.43,11.32,5.32c4.31,0.95,8.62,0.84,12.83-0.32
                                                c0.59-0.16,1.2,0.18,1.36,0.77c0.16,0.59-0.18,1.2-0.77,1.36C-76.9,79.53-79.45,79.87-82.01,79.87z"></path>
                                        </g>
                                        <g>
                                            <path class="st5" d="M-82.06,72.96c-0.61,0-1.11-0.5-1.11-1.11v-0.33c0-0.61,0.5-1.11,1.11-1.11s1.11,0.5,1.11,1.11v0.33
                                                C-80.95,72.46-81.45,72.96-82.06,72.96z"></path>
                                        </g>
                                        <g>
                                            <path class="st5" d="M-59.9,50.79h-0.33c-0.61,0-1.11-0.5-1.11-1.11c0-0.61,0.5-1.11,1.11-1.11h0.33c0.61,0,1.11,0.5,1.11,1.11
                                                C-58.79,50.3-59.28,50.79-59.9,50.79z"></path>
                                        </g>
                                        <g>
                                            <path class="st5" d="M-103.89,50.79h-0.33c-0.61,0-1.11-0.5-1.11-1.11c0-0.61,0.5-1.11,1.11-1.11h0.33c0.61,0,1.11,0.5,1.11,1.11
                                                C-102.78,50.3-103.28,50.79-103.89,50.79z"></path>
                                        </g>
                                        <g>
                                            <path class="st5" d="M-66.62,35.35c-0.28,0-0.57-0.11-0.78-0.32c-0.43-0.43-0.43-1.14,0-1.57l0.23-0.23
                                                c0.43-0.43,1.14-0.43,1.57,0c0.43,0.43,0.43,1.14,0,1.57l-0.23,0.23C-66.05,35.25-66.34,35.35-66.62,35.35z"></path>
                                        </g>
                                        <g>
                                            <path class="st5" d="M-97.73,66.46c-0.28,0-0.57-0.11-0.78-0.32c-0.43-0.43-0.43-1.14,0-1.57l0.23-0.23
                                                c0.43-0.43,1.14-0.43,1.57,0c0.43,0.43,0.43,1.14,0,1.57l-0.23,0.23C-97.16,66.36-97.45,66.46-97.73,66.46z"></path>
                                        </g>
                                        <g>
                                            <path class="st5" d="M-97.5,35.35c-0.28,0-0.57-0.11-0.78-0.32l-0.23-0.23c-0.43-0.43-0.43-1.14,0-1.57
                                                c0.43-0.43,1.14-0.43,1.57,0l0.23,0.23c0.43,0.43,0.43,1.14,0,1.57C-96.93,35.25-97.21,35.35-97.5,35.35z"></path>
                                        </g>
                                        <path class="st1" d="M-67.22,74.87L-67.22,74.87l0.18,0.18l9.21,9.21l9.21-9.21l0.18-0.18l0,0c2.45-2.55,2.43-6.61-0.09-9.12
                                            c-2.51-2.51-6.57-2.54-9.12-0.09l0,0l-0.18,0.18l-0.18-0.18l-0.06-0.06c-2.55-2.45-6.55-2.37-9.06,0.14
                                            C-69.65,68.26-69.67,72.32-67.22,74.87z"></path>
                                    </g>
                                    <g>
                                        <path class="st6" d="M76.62,43.95c-0.76,0,3.02,0,3.02,0c1.67,0,3.02,1.35,3.02,3.02v31.75c0,1.67-1.35,3.02-3.02,3.02H25.22
                                            c-1.67,0-3.02-1.35-3.02-3.02V46.98c0-1.67,1.35-3.02,3.02-3.02c0,0,3.84,0,3.02,0"></path>
                                        <polyline class="st6" points="32.78,54.76 32.78,18.25 72.09,18.25 72.09,54.76 	"></polyline>
                                        <path class="st6" d="M78.14,50c5.43-4.2-21.59,17-21.59,17c-2.5,1.62-5.71,1.62-8.21,0c0,0-27.01-21.23-21.59-17"></path>
                                        <path class="st6" d="M42.86,62.69c0,0-17.96,15.95-14.62,13.07"></path>
                                        <path class="st6" d="M76.62,75.77c3.15,2.79-14.62-13.07-14.62-13.07"></path>
                                        <path class="st6" d="M60.03,28.88c-3.09-0.34-6.42,1.38-7.59,3.96c-1.17-2.58-4.5-4.3-7.59-3.96c-4.07,0.45-6.69,4.6-5.86,8.6
                                            c1.12,5.44,7.29,7.88,13.45,14.04c6.16-6.15,12.33-8.59,13.45-14.04C66.72,33.47,64.1,29.32,60.03,28.88z"></path>
                                    </g>
                                    </svg>