<svg id="_레이어_1" xmlns="http://www.w3.org/2000/svg" viewBox="0 0 100 100"><defs><style>.cls-1{fill:#231f20;}</style></defs><polygon class="cls-1" points="76.89 15.54 76.89 15.54 76.89 15.54 76.89 15.54"></polygon><path class="cls-1" d="m89,40.69l-10.92-24.4-.13-.21-.18-.17-.24-.12-.29-.05-.26.04-22.3,7.58-.1-.17c-.76-1.26-2.02-2.16-3.45-2.47l-.2-.04v-5.05c0-.51-.42-.93-.93-.93s-.93.42-.93.93v5.05l-.2.04c-2.44.53-4.21,2.72-4.21,5.22,0,.2.01.4.04.62l.02.2-22.38,7.64h-.02s-.24.19-.24.19l-.15.23-10.9,24.35.11.05h0s-.07.33-.07.33h-.12c0,6.52,5.3,11.83,11.82,11.83s11.83-5.3,11.83-11.83l-.03-.23-10.53-23.55,21.29-7.24.1.17c.76,1.26,2.02,2.17,3.45,2.47l.2.04v47.21h-10.21c-.51,0-.93.42-.93.93s.42.93.93.93h22.28c.51,0,.93-.42.93-.93s-.42-.93-.93-.93h-10.21V31.19l.2-.04c2.44-.53,4.21-2.72,4.21-5.22,0-.2-.01-.41-.04-.62l-.02-.2,20.24-6.88-10.1,22.73v.05c-.01,6.52,5.29,11.82,11.81,11.82s11.83-5.3,11.83-11.83l-.06-.31Zm-1.83,1.25l-.03.28c-.6,5-4.86,8.76-9.9,8.76s-9.29-3.77-9.9-8.76l-.03-.28h19.86Zm-19.4-1.85l9.47-21.14,9.47,21.14h-18.93Zm-14.28-14.15c0,1.92-1.56,3.48-3.48,3.48s-3.48-1.56-3.48-3.48,1.56-3.48,3.48-3.48,3.48,1.56,3.48,3.48ZM13.3,58.6l9.47-21.14,9.47,21.14H13.3Zm19.4,1.85l-.03.28c-.61,5-4.86,8.76-9.9,8.76s-9.29-3.77-9.9-8.76l-.03-.28h19.86Z"></path><path class="cls-1" d="m70.52,83.45H29.48c-.51,0-.93.42-.93.93s.42.93.93.93h41.03c.51,0,.93-.42.93-.93s-.42-.93-.93-.93Z"></path></svg>